<svg width="22" height="25" viewBox="0 0 22 25" fill="none" xmlns="http://www.w3.org/2000/svg">
<path fill-rule="evenodd" clip-rule="evenodd" d="M12.8855 15.9509C14.1112 15.951 15.1087 17.0371 15.1086 18.3718L15.1082 21.8046C15.1082 22.0914 15.3179 22.3214 15.5866 22.3281L17.527 22.3284C19.056 22.3286 20.2992 20.9829 20.2994 19.329L20.3005 9.59293C20.2934 9.02376 20.0461 8.48804 19.6216 8.13198L12.9104 2.26304C12.0095 1.48059 10.7492 1.48041 9.8451 2.26483L3.17841 8.12736C2.73757 8.49446 2.49013 9.03011 2.48497 9.60932L2.48391 19.3264C2.48373 20.9803 3.72659 22.3264 5.25567 22.3266L7.21435 22.3269C7.49024 22.3269 7.71423 22.087 7.71426 21.7924C7.71427 21.7277 7.7214 21.6629 7.73363 21.6016L7.73398 18.3707C7.73412 17.0438 8.7258 15.9592 9.94235 15.9504L12.8855 15.9509ZM17.5268 24.0024L15.5681 24.0021C14.4462 23.9729 13.581 23.0075 13.5812 21.8044L13.5815 18.3716C13.5816 17.9598 13.2691 17.6249 12.8853 17.6249L9.94725 17.6244C9.5716 17.6266 9.26107 17.9625 9.26102 18.371L9.26065 21.7926C9.26064 21.8763 9.25045 21.9567 9.22906 22.0326C9.11899 23.1374 8.25765 24.0011 7.21417 24.0009L5.25548 24.0006C2.8845 24.0003 0.956583 21.903 0.956866 19.3262L0.957932 9.60128C0.968234 8.49197 1.4346 7.47648 2.23993 6.8081L8.89339 0.955615C10.3585 -0.31642 12.3996 -0.316124 13.8614 0.954103L20.5614 6.81411C21.3482 7.47155 21.8144 8.48495 21.8275 9.58087L21.8264 19.3292C21.8261 21.906 19.8978 24.0027 17.5268 24.0024Z" fill="white"/>
</svg>
