<svg width="27" height="30" viewBox="0 0 27 30" fill="none" xmlns="http://www.w3.org/2000/svg">
<path d="M13.3477 13.5875C13.239 13.575 13.1085 13.575 12.989 13.5875C10.402 13.4875 8.34766 11.05 8.34766 8.05C8.34766 4.9875 10.4998 2.5 13.1737 2.5C15.8368 2.5 17.9998 4.9875 17.9998 8.05C17.989 11.05 15.9346 13.4875 13.3477 13.5875Z" stroke="#888888" stroke-width="1.5" stroke-linecap="round" stroke-linejoin="round"/>
<path d="M7.91301 18.2C5.28258 20.225 5.28258 23.525 7.91301 25.5375C10.9021 27.8375 15.8043 27.8375 18.7934 25.5375C21.4239 23.5125 21.4239 20.2125 18.7934 18.2C15.8152 15.9125 10.913 15.9125 7.91301 18.2Z" stroke="#888888" stroke-width="1.5" stroke-linecap="round" stroke-linejoin="round"/>
</svg>
