<svg width="22" height="25" viewBox="0 0 22 25" fill="none" xmlns="http://www.w3.org/2000/svg">
<path fill-rule="evenodd" clip-rule="evenodd" d="M12.8856 15.9509C14.1113 15.951 15.1088 17.0371 15.1087 18.3718L15.1083 21.8046C15.1083 22.0914 15.318 22.3214 15.5867 22.3281L17.5271 22.3284C19.0562 22.3286 20.2993 20.9829 20.2995 19.329L20.3006 9.59293C20.2935 9.02376 20.0462 8.48804 19.6217 8.13198L12.9105 2.26304C12.0096 1.48059 10.7493 1.48041 9.84522 2.26483L3.17853 8.12736C2.73769 8.49446 2.49025 9.03011 2.48509 9.60932L2.48403 19.3264C2.48385 20.9803 3.72671 22.3264 5.25579 22.3266L7.21447 22.3269C7.49036 22.3269 7.71435 22.087 7.71438 21.7924C7.71439 21.7277 7.72152 21.6629 7.73375 21.6016L7.7341 18.3707C7.73425 17.0438 8.72593 15.9592 9.94247 15.9504L12.8856 15.9509ZM17.5269 24.0024L15.5682 24.0021C14.4464 23.9729 13.5811 23.0075 13.5813 21.8044L13.5817 18.3716C13.5817 17.9598 13.2692 17.6249 12.8854 17.6249L9.94738 17.6244C9.57172 17.6266 9.26119 17.9625 9.26114 18.371L9.26077 21.7926C9.26076 21.8763 9.25057 21.9567 9.22918 22.0326C9.11912 23.1374 8.25777 24.0011 7.21429 24.0009L5.25561 24.0006C2.88462 24.0003 0.956705 21.903 0.956988 19.3262L0.958054 9.60128C0.968356 8.49197 1.43472 7.47648 2.24006 6.8081L8.89351 0.955615C10.3586 -0.31642 12.3997 -0.316124 13.8615 0.954103L20.5615 6.81411C21.3484 7.47155 21.8145 8.48495 21.8276 9.58087L21.8266 19.3292C21.8263 21.906 19.8979 24.0027 17.5269 24.0024Z" fill="#888888"/>
</svg>
