<svg width="27" height="30" viewBox="0 0 27 30" fill="none" xmlns="http://www.w3.org/2000/svg">
<path d="M13.3478 13.5875C13.2391 13.575 13.1086 13.575 12.9891 13.5875C10.4021 13.4875 8.34778 11.05 8.34778 8.05C8.34778 4.9875 10.5 2.5 13.1739 2.5C15.8369 2.5 18 4.9875 18 8.05C17.9891 11.05 15.9347 13.4875 13.3478 13.5875Z" stroke="white" stroke-width="1.5" stroke-linecap="round" stroke-linejoin="round"/>
<path d="M7.91301 18.2C5.28258 20.225 5.28258 23.525 7.91301 25.5375C10.9021 27.8375 15.8043 27.8375 18.7934 25.5375C21.4239 23.5125 21.4239 20.2125 18.7934 18.2C15.8152 15.9125 10.913 15.9125 7.91301 18.2Z" stroke="white" stroke-width="1.5" stroke-linecap="round" stroke-linejoin="round"/>
</svg>
